<svg width="228" height="56" viewBox="0 0 228 56" fill="none" xmlns="http://www.w3.org/2000/svg">
<g clip-path="url(#clip0_0_1311)">
<rect width="228" height="56" rx="28" fill="#755CDE"/>
<path d="M46.152 35H48.328V30.216H53.384V28.296H48.328V25H54.104V23.08H46.152V35ZM54.8666 35H56.9626V30.152C56.9626 29.4907 57.144 28.9787 57.5066 28.616C57.88 28.2427 58.36 28.056 58.9466 28.056H59.6986V26.2H59.1866C58.6533 26.2 58.184 26.296 57.7786 26.488C57.3733 26.68 57.0586 27.0267 56.8346 27.528V26.296H54.8666V35ZM64.979 35.192C65.8643 35.192 66.6377 34.9947 67.299 34.6C67.971 34.1947 68.4403 33.6827 68.707 33.064L67.011 32.232C66.819 32.5627 66.5523 32.8347 66.211 33.048C65.8803 33.2507 65.475 33.352 64.995 33.352C64.3657 33.352 63.8377 33.16 63.411 32.776C62.9843 32.392 62.739 31.88 62.675 31.24H68.947C68.9897 31.1227 69.0163 30.9893 69.027 30.84C69.0483 30.68 69.059 30.52 69.059 30.36C69.059 29.5813 68.8937 28.872 68.563 28.232C68.2323 27.592 67.7523 27.08 67.123 26.696C66.4937 26.3013 65.7257 26.104 64.819 26.104C64.0083 26.104 63.2723 26.3013 62.611 26.696C61.9603 27.0907 61.443 27.6293 61.059 28.312C60.6857 28.984 60.499 29.7573 60.499 30.632C60.499 31.4747 60.6857 32.2427 61.059 32.936C61.4323 33.6293 61.955 34.1787 62.627 34.584C63.299 34.9893 64.083 35.192 64.979 35.192ZM64.819 27.832C65.3737 27.832 65.8323 28.0027 66.195 28.344C66.5683 28.6747 66.7763 29.1067 66.819 29.64H62.723C62.8403 29.064 63.0857 28.6213 63.459 28.312C63.843 27.992 64.2963 27.832 64.819 27.832ZM74.7759 35.192C75.6612 35.192 76.4345 34.9947 77.0959 34.6C77.7679 34.1947 78.2372 33.6827 78.5039 33.064L76.8079 32.232C76.6159 32.5627 76.3492 32.8347 76.0079 33.048C75.6772 33.2507 75.2719 33.352 74.7919 33.352C74.1625 33.352 73.6345 33.16 73.2079 32.776C72.7812 32.392 72.5359 31.88 72.4719 31.24H78.7439C78.7865 31.1227 78.8132 30.9893 78.8239 30.84C78.8452 30.68 78.8559 30.52 78.8559 30.36C78.8559 29.5813 78.6905 28.872 78.3599 28.232C78.0292 27.592 77.5492 27.08 76.9199 26.696C76.2905 26.3013 75.5225 26.104 74.6159 26.104C73.8052 26.104 73.0692 26.3013 72.4079 26.696C71.7572 27.0907 71.2399 27.6293 70.8559 28.312C70.4825 28.984 70.2959 29.7573 70.2959 30.632C70.2959 31.4747 70.4825 32.2427 70.8559 32.936C71.2292 33.6293 71.7519 34.1787 72.4239 34.584C73.0959 34.9893 73.8799 35.192 74.7759 35.192ZM74.6159 27.832C75.1705 27.832 75.6292 28.0027 75.9919 28.344C76.3652 28.6747 76.5732 29.1067 76.6159 29.64H72.5199C72.6372 29.064 72.8825 28.6213 73.2559 28.312C73.6399 27.992 74.0932 27.832 74.6159 27.832ZM89.0645 35.192C89.9178 35.192 90.6805 35.048 91.3525 34.76C92.0352 34.472 92.6112 34.0933 93.0805 33.624C93.5498 33.144 93.8858 32.6213 94.0885 32.056L92.1365 31.144C91.9018 31.7413 91.5178 32.2373 90.9845 32.632C90.4618 33.016 89.8218 33.208 89.0645 33.208C88.3178 33.208 87.6618 33.032 87.0965 32.68C86.5312 32.328 86.0885 31.8427 85.7685 31.224C85.4485 30.5947 85.2885 29.864 85.2885 29.032C85.2885 28.2 85.4485 27.4747 85.7685 26.856C86.0885 26.2267 86.5312 25.7413 87.0965 25.4C87.6618 25.048 88.3178 24.872 89.0645 24.872C89.8218 24.872 90.4618 25.0693 90.9845 25.464C91.5178 25.848 91.9018 26.3387 92.1365 26.936L94.0885 26.024C93.8858 25.4587 93.5498 24.9413 93.0805 24.472C92.6112 23.992 92.0352 23.608 91.3525 23.32C90.6805 23.032 89.9178 22.888 89.0645 22.888C88.2112 22.888 87.4218 23.0427 86.6965 23.352C85.9712 23.6507 85.3418 24.0773 84.8085 24.632C84.2752 25.176 83.8592 25.8267 83.5605 26.584C83.2618 27.3307 83.1125 28.1467 83.1125 29.032C83.1125 29.9173 83.2618 30.7387 83.5605 31.496C83.8592 32.2427 84.2752 32.8933 84.8085 33.448C85.3418 34.0027 85.9712 34.4347 86.6965 34.744C87.4218 35.0427 88.2112 35.192 89.0645 35.192ZM99.7789 35.192C100.622 35.192 101.39 35 102.083 34.616C102.776 34.2213 103.331 33.6827 103.747 33C104.163 32.3067 104.371 31.5227 104.371 30.648C104.371 29.7733 104.163 28.9947 103.747 28.312C103.342 27.6293 102.792 27.0907 102.099 26.696C101.406 26.3013 100.632 26.104 99.7789 26.104C98.9149 26.104 98.1362 26.3013 97.4429 26.696C96.7495 27.0907 96.1949 27.6293 95.7789 28.312C95.3735 28.9947 95.1709 29.7733 95.1709 30.648C95.1709 31.5227 95.3735 32.3013 95.7789 32.984C96.1949 33.6667 96.7495 34.2053 97.4429 34.6C98.1469 34.9947 98.9255 35.192 99.7789 35.192ZM99.7789 33.272C99.3095 33.272 98.8882 33.16 98.5149 32.936C98.1522 32.712 97.8642 32.4027 97.6509 32.008C97.4482 31.6027 97.3469 31.1493 97.3469 30.648C97.3469 30.1467 97.4482 29.6987 97.6509 29.304C97.8642 28.9093 98.1522 28.6 98.5149 28.376C98.8882 28.1413 99.3095 28.024 99.7789 28.024C100.248 28.024 100.659 28.1413 101.011 28.376C101.374 28.6 101.656 28.9093 101.859 29.304C102.072 29.6987 102.179 30.1467 102.179 30.648C102.179 31.1493 102.072 31.6027 101.859 32.008C101.656 32.4027 101.374 32.712 101.011 32.936C100.659 33.16 100.248 33.272 99.7789 33.272ZM105.96 35H108.056V29.896C108.056 29.3307 108.216 28.8773 108.536 28.536C108.867 28.1947 109.294 28.024 109.816 28.024C110.339 28.024 110.76 28.1947 111.08 28.536C111.411 28.8667 111.576 29.32 111.576 29.896V35H113.672V29.4C113.672 28.7493 113.534 28.1787 113.256 27.688C112.979 27.1867 112.59 26.7973 112.088 26.52C111.598 26.2427 111.032 26.104 110.392 26.104C109.848 26.104 109.358 26.2107 108.92 26.424C108.494 26.6373 108.163 26.952 107.928 27.368V26.296H105.96V35ZM118.757 35.192C119.418 35.192 119.994 35.08 120.485 34.856C120.975 34.632 121.359 34.3227 121.637 33.928C121.914 33.5227 122.053 33.0587 122.053 32.536C122.053 31.928 121.861 31.4053 121.477 30.968C121.093 30.5307 120.538 30.2107 119.813 30.008L118.421 29.592C118.122 29.5067 117.877 29.3947 117.685 29.256C117.493 29.1173 117.397 28.9253 117.397 28.68C117.397 28.424 117.498 28.216 117.701 28.056C117.903 27.896 118.181 27.816 118.533 27.816C118.97 27.816 119.365 27.9333 119.717 28.168C120.079 28.4027 120.33 28.7173 120.469 29.112L122.069 28.36C121.802 27.656 121.354 27.1067 120.725 26.712C120.095 26.3067 119.37 26.104 118.549 26.104C117.919 26.104 117.359 26.216 116.869 26.44C116.389 26.664 116.01 26.9787 115.733 27.384C115.466 27.7787 115.333 28.2427 115.333 28.776C115.333 29.3733 115.519 29.8907 115.893 30.328C116.277 30.7653 116.837 31.0907 117.573 31.304L118.997 31.704C119.274 31.7787 119.509 31.8907 119.701 32.04C119.903 32.1787 120.005 32.3707 120.005 32.616C120.005 32.904 119.887 33.1333 119.653 33.304C119.429 33.464 119.13 33.544 118.757 33.544C118.266 33.544 117.823 33.4053 117.429 33.128C117.034 32.8507 116.719 32.4667 116.485 31.976L114.917 32.728C115.173 33.4747 115.642 34.072 116.325 34.52C117.018 34.968 117.829 35.192 118.757 35.192ZM126.768 35.192C127.312 35.192 127.792 35.0907 128.208 34.888C128.634 34.6747 128.97 34.3653 129.216 33.96V35H131.2V26.296H129.104V31.4C129.104 31.976 128.938 32.4347 128.608 32.776C128.277 33.1067 127.856 33.272 127.344 33.272C126.821 33.272 126.394 33.1067 126.064 32.776C125.744 32.4453 125.584 32.0027 125.584 31.448V26.296H123.488V31.624C123.488 32.6907 123.776 33.5547 124.352 34.216C124.938 34.8667 125.744 35.192 126.768 35.192ZM133.148 35H135.244V22.888H133.148V35ZM141.147 35.096C141.499 35.096 141.846 35.0693 142.187 35.016V33.208C141.984 33.24 141.798 33.256 141.627 33.256C141.115 33.256 140.742 33.1387 140.507 32.904C140.272 32.6693 140.155 32.3333 140.155 31.896V28.168H142.155V26.296H140.155V24.312H138.059V24.984C138.059 25.4107 137.942 25.736 137.707 25.96C137.472 26.184 137.142 26.296 136.715 26.296H136.555V28.168H138.059V32.008C138.059 32.9787 138.326 33.736 138.859 34.28C139.403 34.824 140.166 35.096 141.147 35.096ZM146.382 35.192C147.512 35.192 148.419 34.8187 149.102 34.072V35H151.086V29.208C151.086 28.6 150.931 28.0613 150.622 27.592C150.312 27.1227 149.886 26.76 149.342 26.504C148.808 26.2373 148.184 26.104 147.47 26.104C146.595 26.104 145.816 26.312 145.134 26.728C144.451 27.144 143.982 27.6933 143.726 28.376L145.438 29.208C145.598 28.8133 145.848 28.4987 146.19 28.264C146.531 28.0187 146.931 27.896 147.39 27.896C147.87 27.896 148.254 28.024 148.542 28.28C148.84 28.5253 148.99 28.8347 148.99 29.208V29.496L146.398 29.912C145.374 30.0827 144.616 30.408 144.126 30.888C143.635 31.368 143.39 31.9707 143.39 32.696C143.39 33.464 143.662 34.072 144.206 34.52C144.75 34.968 145.475 35.192 146.382 35.192ZM145.566 32.616C145.566 32.008 145.976 31.624 146.798 31.464L148.99 31.096V31.448C148.99 32.0453 148.782 32.552 148.366 32.968C147.96 33.384 147.427 33.592 146.766 33.592C146.414 33.592 146.126 33.5067 145.902 33.336C145.678 33.1547 145.566 32.9147 145.566 32.616ZM156.835 35.096C157.187 35.096 157.533 35.0693 157.875 35.016V33.208C157.672 33.24 157.485 33.256 157.315 33.256C156.803 33.256 156.429 33.1387 156.195 32.904C155.96 32.6693 155.843 32.3333 155.843 31.896V28.168H157.843V26.296H155.843V24.312H153.747V24.984C153.747 25.4107 153.629 25.736 153.395 25.96C153.16 26.184 152.829 26.296 152.403 26.296H152.243V28.168H153.747V32.008C153.747 32.9787 154.013 33.736 154.547 34.28C155.091 34.824 155.853 35.096 156.835 35.096ZM159.476 25.32H161.572V23.08H159.476V25.32ZM159.476 35H161.572V26.296H159.476V35ZM167.763 35.192C168.606 35.192 169.374 35 170.067 34.616C170.761 34.2213 171.315 33.6827 171.731 33C172.147 32.3067 172.355 31.5227 172.355 30.648C172.355 29.7733 172.147 28.9947 171.731 28.312C171.326 27.6293 170.777 27.0907 170.083 26.696C169.39 26.3013 168.617 26.104 167.763 26.104C166.899 26.104 166.121 26.3013 165.427 26.696C164.734 27.0907 164.179 27.6293 163.763 28.312C163.358 28.9947 163.155 29.7733 163.155 30.648C163.155 31.5227 163.358 32.3013 163.763 32.984C164.179 33.6667 164.734 34.2053 165.427 34.6C166.131 34.9947 166.91 35.192 167.763 35.192ZM167.763 33.272C167.294 33.272 166.873 33.16 166.499 32.936C166.137 32.712 165.849 32.4027 165.635 32.008C165.433 31.6027 165.331 31.1493 165.331 30.648C165.331 30.1467 165.433 29.6987 165.635 29.304C165.849 28.9093 166.137 28.6 166.499 28.376C166.873 28.1413 167.294 28.024 167.763 28.024C168.233 28.024 168.643 28.1413 168.995 28.376C169.358 28.6 169.641 28.9093 169.843 29.304C170.057 29.6987 170.163 30.1467 170.163 30.648C170.163 31.1493 170.057 31.6027 169.843 32.008C169.641 32.4027 169.358 32.712 168.995 32.936C168.643 33.16 168.233 33.272 167.763 33.272ZM173.945 35H176.041V29.896C176.041 29.3307 176.201 28.8773 176.521 28.536C176.851 28.1947 177.278 28.024 177.801 28.024C178.323 28.024 178.745 28.1947 179.065 28.536C179.395 28.8667 179.561 29.32 179.561 29.896V35H181.657V29.4C181.657 28.7493 181.518 28.1787 181.241 27.688C180.963 27.1867 180.574 26.7973 180.073 26.52C179.582 26.2427 179.017 26.104 178.377 26.104C177.833 26.104 177.342 26.2107 176.905 26.424C176.478 26.6373 176.147 26.952 175.913 27.368V26.296H173.945V35Z" fill="#FFF7F0"/>
</g>
<defs>
<clipPath id="clip0_0_1311">
<rect width="228" height="56" fill="white"/>
</clipPath>
</defs>
</svg>
